# xmcd CD database file
#
# Track frame offsets:
#	150
#	20506
#	39240
#	55970
#	74618
#	94753
#	109716
#	125801
#	144141
#	172252
#	192826
#	211858
#	232712
#	255376
#	277505
#	284088
#	303453
#	324464
#	343388
#
# Disc length: 4791 seconds
#
# Revision: 0
# Processed by: cddbd v1.5.1PL0 Copyright (c) Steve Scherf et al.
# Submitted via: CDex 1.51
#
DISCID=1712b513
DTITLE=Various Artist - Merengue Mix 2002 Vol. 2
DYEAR=2002
DGENRE=Merengue
TTITLE0=Chuleta - Toño Rosario
TTITLE1=Vuelto Loco - Malafe
TTITLE2=La Mujer Malavilla - Freddy Geraldo
TTITLE3=Dominicano De Pura Sepa - Kalimete
TTITLE4=Apagame La Vela - La Banda Chula
TTITLE5=Reloj - Mc
TTITLE6=La Tombola - Toño Rosario
TTITLE7=La Piedra - Cristofer Valoy
TTITLE8=Meñeco - Kinito Mendez
TTITLE9=Tengo Swing - Raffy Matias and Tulile
TTITLE10=Te Vere - Tulile
TTITLE11=Hablemos De Amor - Sergio Vargas
TTITLE12=Te Recuerdo - Los Hnos Rosarios
TTITLE13=Mujeriego Somos - Kinito Mendez
TTITLE14=El Ladron - Malafe
TTITLE15=Yo No Se Porque - Los Toros Band
TTITLE16=Dame Una Oportunidad - Joseh Fonseca
TTITLE17=Witito Watato - Tulile
TTITLE18=Ay Bueno - Fernando Villalona and John Secada
EXTD=YEAR: 2002
EXTT0=
EXTT1=
EXTT2=
EXTT3=
EXTT4=
EXTT5=
EXTT6=
EXTT7=
EXTT8=
EXTT9=
EXTT10=
EXTT11=
EXTT12=
EXTT13=
EXTT14=
EXTT15=
EXTT16=
EXTT17=
EXTT18=
PLAYORDER=
